<svg xmlns="http://www.w3.org/2000/svg" xmlns:xlink="http://www.w3.org/1999/xlink" version="1.1" style="enable-background:new 0 0 60 60;" xml:space="preserve" width="60" height="50"><rect id="backgroundrect" width="100%" height="100%" x="0" y="0" fill="none" stroke="none"/>
















<g class="currentLayer" style=""><title>Layer 1</title><path d="M50.976,26.194 C50.447,17.194 43.028,10 34.085,10 c-5.43,0 -10.688,2.6630000000000003 -13.946,7.008 c-0.07500000000000002,-0.039000000000000014 -0.15400000000000005,-0.06600000000000003 -0.23,-0.10200000000000002 c-0.19800000000000006,-0.09600000000000006 -0.3990000000000002,-0.18700000000000006 -0.6040000000000002,-0.269 c-0.11400000000000003,-0.04500000000000002 -0.22800000000000006,-0.08600000000000003 -0.3430000000000002,-0.126 c-0.203,-0.07100000000000002 -0.4090000000000001,-0.134 -0.6190000000000002,-0.19100000000000006 c-0.11500000000000003,-0.031000000000000014 -0.22900000000000006,-0.06300000000000003 -0.3450000000000002,-0.08900000000000004 c-0.22500000000000006,-0.05100000000000002 -0.455,-0.09000000000000004 -0.6870000000000004,-0.125 c-0.101,-0.015000000000000006 -0.2,-0.035 -0.3020000000000001,-0.04600000000000002 C16.677,16.023 16.341,16 16,16 c-4.963,0 -9,4.037 -9,9 c0,0.127 0.008000000000000004,0.252 0.016000000000000007,0.3770000000000001 v0.004000000000000002 C2.857,27.649 0,32.399 0,37.154 C0,44.237 5.7620000000000005,50 12.845,50 h24.508 c0.10400000000000002,0 0.20700000000000005,-0.006000000000000004 0.3110000000000001,-0.014000000000000004 l0.06200000000000002,-0.008000000000000004 l0.134,0.008000000000000004 C37.962,49.994 38.064,50 38.169,50 h9.803 C54.604,50 60,44.604 60,37.972 C60,32.483 56.173,27.56 50.976,26.194 zM47.972,48 h-9.803 c-0.05900000000000002,0 -0.11600000000000003,-0.005000000000000002 -0.17400000000000004,-0.009000000000000006 l-0.271,-0.011000000000000006 l-0.19800000000000006,0.011000000000000006 C37.469,47.995 37.411,48 37.353,48 H12.845 C6.865,48 2,43.135 2,37.154 C2,33 4.705,28.688 8.433,26.901 L9,26.63 V26 c0,-0.127 0.008000000000000004,-0.256 0.015000000000000006,-0.3860000000000001 l0.009000000000000006,-0.16000000000000006 l-0.012000000000000004,-0.21000000000000005 C9.006,25.163 9,25.082 9,25 c0,-3.859 3.141,-7 7,-7 c0.3090000000000001,0 0.6140000000000002,0.027000000000000014 0.917,0.06700000000000003 c0.07800000000000003,0.010000000000000004 0.15600000000000006,0.023000000000000013 0.233,0.03600000000000001 c0.267,0.04400000000000002 0.53,0.10200000000000002 0.789,0.17700000000000005 c0.035,0.010000000000000004 0.07100000000000002,0.017000000000000008 0.10600000000000002,0.027000000000000014 c0.2850000000000001,0.08700000000000004 0.5630000000000002,0.19700000000000006 0.8350000000000002,0.3210000000000001 c0.07100000000000002,0.032000000000000015 0.14,0.06700000000000003 0.21000000000000005,0.101 c0.24000000000000005,0.11900000000000004 0.4750000000000001,0.24900000000000005 0.7020000000000002,0.3960000000000002 C21.719,20.373 23,22.538 23,25 c0,0.553 0.4470000000000001,1 1,1 s1,-0.4470000000000001 1,-1 c0,-2.754 -1.246,-5.219 -3.2,-6.871 C24.667,14.379 29.388,12 34.085,12 c7.745,0 14.177,6.135 14.848,13.888 c-1.022,-0.07200000000000002 -2.552,-0.10900000000000003 -4.083,0.12400000000000003 c-0.546,0.08300000000000003 -0.921,0.5930000000000002 -0.8380000000000002,1.139 c0.07500000000000002,0.4950000000000001 0.501,0.8500000000000002 0.987,0.8500000000000002 c0.05000000000000002,0 0.101,-0.004000000000000002 0.15100000000000005,-0.012000000000000004 c2.227,-0.3370000000000002 4.548,-0.021000000000000008 4.684,-0.002000000000000001 C54.49,28.872 58,33.161 58,37.972 C58,43.501 53.501,48 47.972,48 z" id="svg_1" class="selected" stroke="#ffffff" stroke-opacity="1" fill="#ffffff" fill-opacity="1"/><g id="svg_2" class="selected" stroke="#ffffff" stroke-opacity="1" fill="#ffffff" fill-opacity="1">
</g><g id="svg_3" class="selected" stroke="#ffffff" stroke-opacity="1" fill="#ffffff" fill-opacity="1">
</g><g id="svg_4" class="selected" stroke="#ffffff" stroke-opacity="1" fill="#ffffff" fill-opacity="1">
</g><g id="svg_5" class="selected" stroke="#ffffff" stroke-opacity="1" fill="#ffffff" fill-opacity="1">
</g><g id="svg_6" class="selected" stroke="#ffffff" stroke-opacity="1" fill="#ffffff" fill-opacity="1">
</g><g id="svg_7" class="selected" stroke="#ffffff" stroke-opacity="1" fill="#ffffff" fill-opacity="1">
</g><g id="svg_8" class="selected" stroke="#ffffff" stroke-opacity="1" fill="#ffffff" fill-opacity="1">
</g><g id="svg_9" class="selected" stroke="#ffffff" stroke-opacity="1" fill="#ffffff" fill-opacity="1">
</g><g id="svg_10" class="selected" stroke="#ffffff" stroke-opacity="1" fill="#ffffff" fill-opacity="1">
</g><g id="svg_11" class="selected" stroke="#ffffff" stroke-opacity="1" fill="#ffffff" fill-opacity="1">
</g><g id="svg_12" class="selected" stroke="#ffffff" stroke-opacity="1" fill="#ffffff" fill-opacity="1">
</g><g id="svg_13" class="selected" stroke="#ffffff" stroke-opacity="1" fill="#ffffff" fill-opacity="1">
</g><g id="svg_14" class="selected" stroke="#ffffff" stroke-opacity="1" fill="#ffffff" fill-opacity="1">
</g><g id="svg_15" class="selected" stroke="#ffffff" stroke-opacity="1" fill="#ffffff" fill-opacity="1">
</g><g id="svg_16" class="selected" stroke="#ffffff" stroke-opacity="1" fill="#ffffff" fill-opacity="1">
</g></g></svg>